<svg width="32" height="32" viewBox="0 0 32 32" fill="none" xmlns="http://www.w3.org/2000/svg">
<g clip-path="url(#clip0_887_1732)">
<path d="M32 0H0V32H32V0Z" fill="#1D2B1D"/>
<path d="M7.53112 4.86005C8.99675 4.86124 10.2055 6.07178 10.2024 7.54472C10.1989 9.08703 8.91895 10.2495 7.51307 10.216C6.08711 10.2448 4.83395 9.05381 4.83423 7.53453C4.83423 6.06104 6.04772 4.85892 7.53112 4.86005Z" fill="white"/>
<path d="M9.08823 27.1368H5.94805C5.54052 27.1368 5.21014 26.8064 5.21014 26.3989V13.0027C5.21014 12.5952 5.54052 12.2648 5.94805 12.2648H9.08823C9.49577 12.2648 9.82614 12.5952 9.82614 13.0027V26.3989C9.82607 26.8064 9.49577 27.1368 9.08823 27.1368Z" fill="white"/>
<path d="M27.1658 16.9701C27.1658 14.1617 24.8892 11.885 22.0807 11.885H21.2753C19.7388 11.885 18.3814 12.6516 17.5649 13.8234C17.4759 13.9511 17.3935 14.0838 17.3178 14.2207C17.2916 14.2168 17.2761 14.2147 17.2757 14.2154V12.5711C17.2757 12.4019 17.1386 12.2647 16.9693 12.2647H13.0516C12.8824 12.2647 12.7452 12.4019 12.7452 12.5711V26.8305C12.7452 26.9997 12.8823 27.1368 13.0515 27.1369L17.0546 27.1379C17.2238 27.1379 17.361 27.0007 17.361 26.8315V18.5935C17.361 17.1695 18.4968 15.9871 19.9207 15.971C20.6476 15.9628 21.3066 16.254 21.7815 16.7293C22.2502 17.1977 22.54 17.8454 22.54 18.5605V26.8326C22.54 27.0017 22.6771 27.1389 22.8462 27.1389L26.8593 27.1399C27.0285 27.14 27.1657 27.0028 27.1657 26.8335V16.9701H27.1658Z" fill="white"/>
</g>
<defs>
<clipPath id="clip0_887_1732">
<rect width="32" height="32" fill="white"/>
</clipPath>
</defs>
</svg>
